<svg xmlns="http://www.w3.org/2000/svg" width="200" height="12.707" viewBox="0 0 200 12.707"><g transform="translate(-5.669 -6.244)"><path d="M660.492,9.238l-4.877,12.241h2.973l.991-2.623h4.955l1.01,2.623h3.128L663.795,9.238Zm-.058,7.383,1.574-4.177h.078l1.593,4.177Z" transform="translate(-599.358 -2.761)" fill="#0B1220"/><path d="M1007.177,16.367c-1.943,0-3.245-1.477-3.245-3.769s1.283-3.769,3.264-3.769a2.856,2.856,0,0,1,2.973,2.312l2.642-1.224c-.738-2.2-2.642-3.672-5.6-3.672a6.151,6.151,0,0,0-6.334,6.354,6.146,6.146,0,0,0,6.315,6.354c3.206,0,5.149-1.69,5.752-4.177l-2.74-.933A2.876,2.876,0,0,1,1007.177,16.367Z" transform="translate(-917.752 0)" fill="#0B1220"/><path d="M1187.771,13.9h-5.985V9.238h-2.953V21.479h2.953V16.466h5.985v5.013h2.953V9.238h-2.953Z" transform="translate(-1081.852 -2.761)" fill="#0B1220"/><rect width="2.953" height="12.241" transform="translate(111.525 6.477)" fill="#0B1220"/><path d="M1423.68,11.842h4.663v9.637h2.953V11.842h4.722v-2.6H1423.68Z" transform="translate(-1307.642 -2.761)" fill="#0B1220"/><path d="M1605.553,16.466h6.885V14h-6.885V11.745h7.189V9.238h-10.084V21.479h10.259V18.972h-7.364Z" transform="translate(-1472.689 -2.761)" fill="#0B1220"/><path d="M1755.677,16.367c-1.943,0-3.245-1.477-3.245-3.769s1.283-3.769,3.264-3.769a2.856,2.856,0,0,1,2.973,2.312l2.642-1.224c-.738-2.2-2.642-3.672-5.6-3.672a6.151,6.151,0,0,0-6.334,6.354,6.146,6.146,0,0,0,6.315,6.354c3.206,0,5.149-1.69,5.751-4.177l-2.74-.933A2.876,2.876,0,0,1,1755.677,16.367Z" transform="translate(-1607.993 0)" fill="#0B1220"/><path d="M1918.073,11.842h4.663v9.637h2.953V11.842h4.721v-2.6h-12.338Z" transform="translate(-1763.555 -2.761)" fill="#0B1220"/><path d="M2104.69,16.019c0,2.021-.894,3.206-2.681,3.206s-2.7-1.185-2.7-3.206V9.238h-2.934v7.228c0,3.575,2.565,5.246,5.635,5.246,3.05,0,5.634-1.671,5.634-5.246V9.238h-2.954Z" transform="translate(-1927.978 -2.761)" fill="#0B1220"/><path d="M10.546,9.239,5.669,21.48H8.642l.991-2.623h4.955L15.6,21.48h3.128L13.849,9.239Zm-.058,7.383,1.574-4.177h.078l1.593,4.177Z" transform="translate(0 -2.762)" fill="#0B1220"/><path d="M197.388,9.239h-2.953V21.48h9.948v-2.6h-6.995Z" transform="translate(-174.073 -2.762)" fill="#0B1220"/><path d="M429.774,9.239,424.9,21.48h2.973l.991-2.623h4.955l1.01,2.623h3.128L433.077,9.239Zm-.058,7.383,1.574-4.177h.078l1.593,4.177Z" transform="translate(-386.598 -2.762)" fill="#0B1220"/><path d="M276.07,11.843h6.995V21.48h2.953V9.239H276.07Z" transform="translate(-249.355 -2.762)" fill="#0B1220"/><path d="M2446.335,18.972V16.466h6.885V14h-6.885V11.745h7.189V9.238H2443.44V21.479H2453.7V18.972Z" transform="translate(-2248.03 -2.761)" fill="#0B1220"/><path d="M2285,12.852c0-2.215-1.554-3.614-4.682-3.614H2274V21.479h2.9V16.8h2.28l2.792,4.683h3.42l-3.226-5.079A3.529,3.529,0,0,0,2285,12.852Zm-8.1,1.69V11.609h2.934c1.535,0,2.273.505,2.273,1.477,0,.991-.757,1.457-2.292,1.457Z" transform="translate(-2091.779 -2.761)" fill="#0B1220"/><path d="M852.511,12.852c0-2.215-1.554-3.614-4.683-3.614h-6.314V21.479h2.9V16.8h2.28l2.792,4.683h3.42L849.674,16.4A3.53,3.53,0,0,0,852.511,12.852Zm-8.1,1.69V11.609h2.934c1.535,0,2.273.505,2.273,1.477,0,.991-.758,1.457-2.293,1.457Z" transform="translate(-770.788 -2.761)" fill="#0B1220"/></g></svg>