<svg xmlns="http://www.w3.org/2000/svg" width="236" height="40" viewBox="0 0 236 40" fill="none"><g clip-path="url(#clip0_10_99)"><path d="M9.33 39.1701H0V0.830078H14.67C17.68 0.830078 20.3 1.35008 22.45 2.38008C24.64 3.43008 26.31 4.91008 27.42 6.76008C28.52 8.60008 29.07 10.7201 29.07 13.0301C29.07 15.1301 28.55 17.1301 27.54 18.9701C26.51 20.8301 24.89 22.3501 22.72 23.4701C20.58 24.5801 17.87 25.1401 14.67 25.1401H9.33V39.1501V39.1701ZM1.84 37.3301H7.48V23.3201H14.66C17.56 23.3201 19.98 22.8301 21.86 21.8501C23.7 20.8901 25.07 19.6301 25.92 18.0901C26.78 16.5301 27.22 14.8301 27.22 13.0501C27.22 11.0701 26.75 9.27008 25.82 7.72008C24.9 6.18008 23.5 4.95008 21.64 4.05008C19.74 3.14008 17.39 2.68008 14.66 2.68008H1.84V37.3301ZM14.34 19.2601H7.48V6.79008H14.34C20.14 6.79008 21.36 10.1901 21.36 13.0401C21.36 14.9701 20.76 16.5101 19.57 17.6101C18.4 18.6901 16.64 19.2401 14.34 19.2401V19.2601ZM9.32 17.4201H14.34C16.16 17.4201 17.5 17.0401 18.31 16.2801C19.12 15.5301 19.51 14.4801 19.51 13.0601C19.51 10.0101 17.91 8.65008 14.33 8.65008H9.31V17.4201H9.32Z" fill="white"/><path d="M63.8899 40H53.7699L44.8399 26.11H41.4899V40H31.6299V0H47.4399C50.6299 0 53.3999 0.56 55.6799 1.65C57.9899 2.76 59.7599 4.3 60.9299 6.22C62.0999 8.13 62.6899 10.29 62.6899 12.64C62.6899 15.35 61.8599 17.83 60.2299 20.01C58.8099 21.91 56.7799 23.3 54.1899 24.17L63.8999 40H63.8899ZM54.8199 38.07H60.4499L51.1999 22.99L52.4699 22.67C55.2199 21.97 57.3099 20.68 58.6799 18.85C60.0799 16.99 60.7499 14.95 60.7499 12.64C60.7499 10.65 60.2499 8.83 59.2799 7.22C58.3099 5.63 56.8099 4.34 54.8399 3.39C52.8299 2.42 50.3399 1.93 47.4399 1.93H33.5599V38.07H39.5699V24.18H45.8999L54.8299 38.07H54.8199ZM47.1499 19.44H39.5499V6.33H47.1499C49.5399 6.33 51.3799 6.9 52.6199 8.03C53.8799 9.18 54.5199 10.79 54.5199 12.81C54.5199 14.83 53.8799 16.5 52.6299 17.68C51.3899 18.85 49.5499 19.44 47.1499 19.44ZM41.4799 17.51H47.1499C49.0399 17.51 50.4399 17.09 51.3099 16.27C52.1699 15.45 52.5899 14.32 52.5899 12.8C52.5899 11.28 52.1699 10.23 51.3199 9.45C50.4499 8.66 49.0499 8.26 47.1499 8.26H41.4799V17.51Z" fill="white"/><path d="M126.79 40C123.89 40 121.19 39.51 118.7 38.54C116.21 37.56 114.05 36.17 112.22 34.37C110.39 32.57 108.97 30.45 107.95 28.02C106.93 25.59 106.42 22.92 106.42 20.01C106.42 17.1 106.93 14.43 107.95 12C108.97 9.57002 110.4 7.45002 112.25 5.65002C114.1 3.85002 116.25 2.46002 118.73 1.48002C121.2 0.50002 123.91 0.0200195 126.85 0.0200195C130.11 0.0200195 133.06 0.60002 135.69 1.76002C138.32 2.92002 140.54 4.62002 142.33 6.87002L136.74 12.17C135.45 10.66 134.02 9.53002 132.44 8.77002C130.86 8.02002 129.14 7.64002 127.28 7.64002C125.52 7.64002 123.91 7.93002 122.44 8.52002C120.97 9.11002 119.7 9.96002 118.62 11.06C117.55 12.17 116.71 13.47 116.12 14.98C115.53 16.49 115.23 18.17 115.23 20.01C115.23 21.85 115.53 23.53 116.12 25.04C116.71 26.55 117.54 27.86 118.62 28.96C119.7 30.06 120.97 30.91 122.44 31.5C123.91 32.09 125.52 32.38 127.28 32.38C129.14 32.38 130.86 32 132.44 31.25C134.02 30.5 135.45 29.34 136.74 27.8L142.33 33.1C140.54 35.35 138.33 37.06 135.69 38.24C133.06 39.42 130.09 40.01 126.8 40.01L126.79 40Z" fill="white"/><path d="M164.73 40C167.79 40 170.61 39.5 173.21 38.51C175.81 37.52 178.05 36.12 179.95 34.31C181.85 32.51 183.32 30.39 184.37 27.96C185.42 25.53 185.95 22.88 185.95 20C185.95 17.12 185.42 14.47 184.37 12.04C183.32 9.61 181.84 7.49 179.92 5.69C178 3.89 175.76 2.49 173.18 1.49C170.6 0.5 167.8 0 164.78 0C161.76 0 158.91 0.5 156.35 1.49C153.79 2.48 151.56 3.88 149.67 5.69C147.77 7.5 146.29 9.6 145.22 12.02C144.15 14.43 143.62 17.09 143.62 20C143.62 22.91 144.15 25.53 145.22 27.98C146.29 30.43 147.77 32.55 149.67 34.33C151.57 36.12 153.8 37.51 156.35 38.5C158.91 39.49 161.7 39.99 164.72 39.99L164.73 40ZM164.79 32.38C163.06 32.38 161.47 32.09 160.01 31.5C158.56 30.91 157.27 30.06 156.17 28.96C155.06 27.86 154.21 26.55 153.6 25.04C152.99 23.53 152.69 21.85 152.69 20.01C152.69 18.17 152.99 16.49 153.6 14.98C154.21 13.47 155.06 12.16 156.14 11.06C157.23 9.95 158.51 9.11 159.98 8.52C161.45 7.93 163.06 7.64 164.79 7.64C166.52 7.64 168.11 7.93 169.57 8.52C171.02 9.11 172.3 9.96 173.41 11.06C174.51 12.17 175.37 13.47 175.98 14.98C176.59 16.49 176.89 18.17 176.89 20.01C176.89 21.85 176.59 23.48 175.98 25.01C175.37 26.54 174.53 27.86 173.44 28.96C172.35 30.07 171.07 30.91 169.6 31.5C168.13 32.09 166.53 32.38 164.79 32.38Z" fill="white"/><path d="M84.2201 40C81.2001 40 78.3701 39.5 75.8001 38.52C73.2201 37.53 70.96 36.12 69.06 34.32C67.17 32.52 65.68 30.38 64.63 27.96C63.58 25.54 63.05 22.86 63.05 20.01C63.05 17.16 63.58 14.48 64.63 12.06C65.68 9.64002 67.17 7.50002 69.09 5.69002C71 3.89002 73.26 2.48002 75.82 1.50002C78.37 0.51002 81.1801 0.0200195 84.1601 0.0200195C87.1401 0.0200195 89.99 0.52002 92.53 1.51002C95.07 2.50002 97.32 3.91002 99.21 5.70002C101.1 7.50002 102.6 9.63002 103.66 12.03C104.73 14.44 105.27 17.13 105.27 20.02C105.27 22.91 104.73 25.56 103.67 28C102.6 30.44 101.11 32.58 99.21 34.36C97.32 36.14 95.0801 37.54 92.5401 38.53C90.0001 39.52 87.2001 40.02 84.2201 40.02V40ZM84.17 1.86002C81.42 1.86002 78.83 2.32002 76.5 3.22002C74.17 4.12002 72.1101 5.40002 70.3701 7.03002C68.6401 8.66002 67.29 10.59 66.34 12.78C65.39 14.97 64.9101 17.4 64.9101 20C64.9101 22.6 65.39 25.03 66.34 27.22C67.29 29.41 68.64 31.35 70.34 32.97C72.05 34.6 74.11 35.88 76.46 36.78C78.82 37.68 81.4301 38.14 84.2201 38.14C87.0101 38.14 89.5401 37.68 91.8701 36.78C94.1901 35.88 96.2301 34.61 97.9401 32.99C99.6501 31.38 101 29.45 101.97 27.24C102.93 25.03 103.42 22.6 103.42 20C103.42 17.4 102.93 14.93 101.97 12.76C101.01 10.58 99.6501 8.65002 97.9401 7.02002C96.2201 5.39002 94.1801 4.11002 91.8701 3.21002C89.5501 2.31002 86.96 1.85002 84.17 1.85002V1.86002ZM84.17 32.73C82.41 32.73 80.75 32.42 79.24 31.82C77.72 31.21 76.3801 30.33 75.2601 29.18C74.1401 28.05 73.26 26.67 72.64 25.11C72.02 23.55 71.71 21.83 71.71 20C71.71 18.17 72.0201 16.41 72.6501 14.86C73.2701 13.31 74.1701 11.95 75.3001 10.81C76.4401 9.67002 77.77 8.79002 79.27 8.18002C80.76 7.58002 82.41 7.27002 84.18 7.27002C85.95 7.27002 87.6001 7.58002 89.1101 8.18002C90.6301 8.79002 91.97 9.68002 93.09 10.82C94.21 11.96 95.09 13.32 95.71 14.86C96.33 16.41 96.6501 18.14 96.6501 20C96.6501 21.86 96.34 23.59 95.71 25.14C95.08 26.69 94.1901 28.06 93.0501 29.19C91.9101 30.33 90.5801 31.21 89.0801 31.82C87.5901 32.42 85.94 32.73 84.17 32.73ZM84.17 9.13002C82.65 9.13002 81.23 9.39002 79.96 9.90002C78.69 10.41 77.5701 11.16 76.6101 12.12C75.6501 13.08 74.8901 14.24 74.3601 15.55C73.8301 16.87 73.56 18.37 73.56 20C73.56 21.63 73.8301 23.08 74.3601 24.42C74.8901 25.76 75.6401 26.92 76.5801 27.88C77.5201 28.84 78.65 29.58 79.92 30.09C81.21 30.61 82.6301 30.87 84.1601 30.87C85.6901 30.87 87.1001 30.61 88.3701 30.09C89.6401 29.58 90.7601 28.83 91.7201 27.87C92.6801 26.91 93.4401 25.76 93.9701 24.44C94.5001 23.12 94.77 21.62 94.77 19.99C94.77 18.36 94.5001 16.87 93.9701 15.54C93.4401 14.22 92.69 13.07 91.74 12.1C90.8 11.14 89.6701 10.4 88.4001 9.89002C87.1101 9.38002 85.6901 9.11002 84.1601 9.11002L84.17 9.13002Z" fill="white"/><path d="M187.67 40V0H194.45L213.69 27H210.4V0H220.15V40H212.95L193.05 12.85H196.34V40H187.66H187.67Z" fill="white"/><path d="M228.96 40C232.473 40 235.32 37.1526 235.32 33.64C235.32 30.1275 232.473 27.28 228.96 27.28C225.448 27.28 222.6 30.1275 222.6 33.64C222.6 37.1526 225.448 40 228.96 40Z" fill="white"/></g><defs><clipPath id="clip0_10_99"><rect width="235.33" height="40" fill="white" style="fill:white;fill-opacity:1;"></rect></clipPath></defs></svg>
